<?xml version="1.0" encoding="utf-8"?>
<svg viewBox="0 0 500 500" xmlns="http://www.w3.org/2000/svg">
  <path stroke="rgb(255,0,0)" stroke-width="0" opacity="0.9647058823529412" d="M 214.573 20.784 C 242.143 15.17 276.507 18.189 302.237 23.523 C 325.078 28.258 346.169 37.936 362.506 48.179 C 376.789 57.133 383.713 62.952 396.75 79.683 C 417.354 106.127 457.623 165.628 470.717 205.701 C 481.921 239.99 489.146 271.314 478.935 304.323 C 466.988 342.948 423.547 393.772 389.901 420.752 C 360.133 444.623 330.46 454.891 291.279 464.584 C 244.547 476.146 164.623 487.494 124.169 478.282 C 94.517 471.53 75.092 454.828 59.79 435.819 C 44.553 416.891 37.941 390.458 32.395 364.592 C 26.456 336.893 21.659 308.337 26.916 274.188 C 33.421 231.935 59.274 166.251 78.967 128.994 C 94.418 99.763 120.083 71.564 129.648 61.876 C 133.708 57.764 132.719 59.177 137.866 56.397 C 150.017 49.836 187.401 26.316 214.573 20.784 Z" style="fill-opacity: 1; fill-rule: nonzero; stroke: none; stroke-dasharray: none; stroke-dashoffset: 0px; stroke-linecap: butt; stroke-linejoin: miter; stroke-miterlimit: 4; stroke-opacity: 1; stroke-width: 1px; paint-order: normal; vector-effect: none; opacity: 1; mix-blend-mode: normal; isolation: auto;"/>
</svg>