<?xml version="1.0" encoding="utf-8"?>
<svg viewBox="0 0 500 500" xmlns="http://www.w3.org/2000/svg">
  <path stroke="rgb(255,0,0)" stroke-width="0" opacity="0.9882352941176471" d="M 251.448 56.162 C 260.337 54.598 272.332 55.702 283.52 58.151 C 307.451 58.595 336.717 62.367 354.094 68.554 C 375.939 76.332 391.589 91.071 404.775 105.537 C 417.196 119.164 427.171 135.539 432.17 152.109 C 437.098 168.443 437.566 184.924 434.91 204.16 C 431.748 227.057 421.625 258.593 410.254 280.866 C 406.305 288.6 400.891 296.871 395.232 304.627 C 391.646 318.959 387.128 332.913 381.575 345.18 C 370.954 368.642 347.733 397.652 339.113 406.819 C 335.278 410.897 335.613 409.424 330.894 412.298 C 320.791 418.452 293.402 439.797 273.364 445.172 C 254.072 450.348 233.494 448.53 213.095 445.172 C 191.524 441.622 166.971 433.774 147.347 423.256 C 128.292 413.044 110.175 399.409 96.666 383.533 C 83.315 367.843 71.604 348.599 66.531 328.743 C 61.356 308.485 60.437 282.244 66.531 262.995 C 72.364 244.572 82.567 226.692 100.775 215.053 C 123.513 200.52 170.888 221.241 185.507 202.405 C 198.531 185.624 190.856 135.498 195.288 115.061 C 198.898 98.416 208.703 85.287 218.574 75.338 C 227.721 66.12 238.492 58.441 251.448 56.162 Z" style="fill-opacity: 1; fill-rule: nonzero; stroke: none; stroke-dasharray: none; stroke-dashoffset: 0px; stroke-linecap: butt; stroke-linejoin: miter; stroke-miterlimit: 4; stroke-opacity: 1; stroke-width: 1px; paint-order: normal; vector-effect: none; opacity: 1; mix-blend-mode: normal; isolation: auto;"/>
</svg>